<?xml version="1.0" standalone="no"?>
<!DOCTYPE svg PUBLIC "-//W3C//DTD SVG 20010904//EN"
 "http://www.w3.org/TR/2001/REC-SVG-20010904/DTD/svg10.dtd">
<svg version="1.0" xmlns="http://www.w3.org/2000/svg"
 width="700.000000pt" height="700.000000pt" viewBox="0 0 700.000000 700.000000"
 preserveAspectRatio="xMidYMid meet">
<metadata>
Created by potrace 1.14, written by Peter Selinger 2001-2017
</metadata>
<g transform="translate(0.000000,700.000000) scale(0.100000,-0.100000)"
fill="#000000" stroke="none">
<path d="M1324 6096 c-43 -19 -79 -56 -92 -95 -9 -24 -12 -183 -12 -548 0
-591 -3 -572 85 -629 28 -18 52 -19 540 -19 l510 -1 3 -326 2 -327 -477 -3
c-477 -3 -478 -3 -524 -26 -61 -30 -131 -100 -158 -156 -17 -37 -39 -149 -86
-436 -2 -14 -13 -81 -25 -150 -12 -69 -23 -138 -26 -155 -3 -16 -7 -43 -10
-60 -9 -53 -14 -84 -19 -117 -3 -18 -10 -58 -15 -88 -5 -30 -12 -68 -14 -85
-3 -16 -12 -73 -21 -125 -9 -52 -18 -106 -20 -120 -2 -14 -11 -65 -19 -115 -9
-49 -18 -108 -22 -130 -3 -22 -12 -74 -19 -115 -10 -57 -13 -204 -12 -600 l2
-525 28 -60 c36 -78 85 -127 161 -162 l61 -28 2355 0 2355 0 55 26 c80 37 125
81 162 157 l33 67 1 530 c1 475 0 541 -17 635 -10 58 -21 123 -25 145 -3 22
-59 361 -125 752 -88 526 -125 725 -141 760 -27 57 -94 124 -156 155 l-47 23
-1292 3 -1293 2 0 324 c0 250 3 325 13 328 6 2 228 2 492 1 332 -1 492 1 520
9 49 14 79 39 101 87 16 33 17 83 17 553 -1 542 -3 566 -46 606 -57 53 12 51
-1423 51 -1082 0 -1335 -2 -1360 -13z m2337 -494 c3 -53 4 -289 1 -298 -2 -9
-253 -12 -978 -12 l-974 0 0 164 0 163 975 1 c917 0 975 -1 976 -18z m-1476
-1874 c38 -20 71 -55 84 -89 5 -15 9 -82 8 -151 -2 -121 -3 -126 -31 -162 -45
-60 -85 -73 -219 -71 -99 2 -119 5 -155 25 -66 37 -82 81 -82 224 0 127 7 151
57 198 38 36 78 44 202 43 75 -1 115 -6 136 -17z m994 -11 c63 -42 74 -73 76
-210 2 -103 0 -124 -19 -160 -40 -78 -86 -95 -243 -92 -123 3 -163 19 -199 81
-23 39 -25 53 -26 163 0 107 2 124 22 158 43 73 89 90 241 88 99 -2 112 -4
148 -28z m964 8 c22 -10 50 -35 64 -56 23 -34 25 -49 27 -151 2 -132 -7 -170
-50 -213 -40 -41 -85 -51 -209 -50 -119 1 -164 18 -203 78 -25 37 -26 46 -26
166 0 114 3 131 22 163 43 70 85 84 237 83 75 -1 110 -6 138 -20z m980 0 c24
-11 47 -34 63 -60 23 -39 25 -53 25 -162 0 -66 -4 -131 -10 -145 -12 -31 -60
-77 -97 -93 -43 -17 -252 -12 -289 8 -74 38 -93 87 -91 237 3 146 22 188 104
223 49 20 247 15 295 -8z m-2447 -816 c26 -12 53 -36 66 -57 20 -33 23 -51 25
-159 1 -142 -14 -187 -75 -225 -34 -21 -49 -23 -172 -23 -124 0 -138 2 -167
23 -62 44 -73 76 -74 209 0 126 3 141 34 187 34 49 87 66 211 66 91 0 117 -4
152 -21z m967 7 c40 -17 81 -61 94 -101 12 -39 9 -242 -5 -275 -14 -35 -50
-70 -86 -85 -38 -16 -246 -18 -285 -4 -33 13 -69 46 -88 83 -19 37 -24 233 -7
283 15 43 49 81 89 99 42 18 245 19 288 0z m980 0 c75 -32 103 -96 101 -232
-2 -126 -9 -155 -47 -191 -51 -48 -83 -56 -215 -52 -107 4 -122 6 -155 29 -58
39 -71 77 -72 210 -1 120 6 154 42 192 50 54 54 55 206 57 72 1 118 -4 140
-13z m-167 -1239 c21 -25 24 -37 23 -120 -1 -119 -11 -152 -51 -166 -22 -8
-309 -11 -939 -11 l-908 0 -28 24 c-26 22 -27 28 -29 128 -2 114 6 145 45 165
18 9 249 11 943 10 l920 -2 24 -28z"/>
</g>
</svg>
