<svg width="200" height="200" xmlns="http://www.w3.org/2000/svg">
  <rect width="100%" height="100%" fill="white"/>
  <g>
    <path fill="#559E84" transform="translate(0, 0)"
          d="m174.27113,135.73995c0.17463,1.01865 0.26194,2.03729 0.23283,3.05594l0,26.3975c0,5.15144 -4.1619,9.31334 -9.31334,9.31334l-130.38676,0c-5.15144,0 -9.31334,-4.1619 -9.31334,-9.31334l0,-26.4266c0,-1.01865 0.08731,-2.03729 0.26194,-3.05594l7.77082,-46.5667c0.75671,-4.48204 4.65667,-7.77082 9.19692,-7.77082l24.70945,0l0,-18.62668l-27.94002,0c-2.56117,0 -4.65667,-2.0955 -4.65667,-4.65667l0,-27.94002c0,-2.56117 2.0955,-4.65667 4.65667,-4.65667l74.50672,0c2.56117,0 4.65667,2.0955 4.65667,4.65667l0,27.96912c0,2.56117 -2.0955,4.65667 -4.65667,4.65667l-27.94002,0l0,18.62668l71.24705,0c4.56936,0 8.44021,3.28877 9.19692,7.77082l7.77082,46.5667l0.00001,0zm-67.25977,-38.06828l0,4.65667c0,2.56117 2.0955,4.65667 4.65667,4.65667l4.65667,0c2.56117,0 4.65667,-2.0955 4.65667,-4.65667l0,-4.65667c0,-2.56117 -2.0955,-4.65667 -4.65667,-4.65667l-4.65667,0c-2.56117,0 -4.65667,2.0955 -4.65667,4.65667zm-9.31334,18.62668c-2.56117,0 -4.65667,2.0955 -4.65667,4.65667l0,4.65667c0,2.56117 2.0955,4.65667 4.65667,4.65667l4.65667,0c2.56117,0 4.65667,-2.0955 4.65667,-4.65667l0,-4.65667c0,-2.56117 -2.0955,-4.65667 -4.65667,-4.65667l-4.65667,0zm-9.31334,-23.28335l-4.65667,0c-2.56117,0 -4.65667,2.0955 -4.65667,4.65667l0,4.65667c0,2.56117 2.0955,4.65667 4.65667,4.65667l4.65667,0c2.56117,0 4.65667,-2.0955 4.65667,-4.65667l0,-4.65667c0,-2.56117 -2.0955,-4.65667 -4.65667,-4.65667zm-39.58169,-44.23836l55.88004,0l0,-9.31334l-55.88004,0l0,9.31334zm11.64167,58.20837c2.56117,0 4.65667,-2.0955 4.65667,-4.65667l0,-4.65667c0,-2.56117 -2.0955,-4.65667 -4.65667,-4.65667l-4.65667,0c-2.56117,0 -4.65667,2.0955 -4.65667,4.65667l0,4.65667c0,2.56117 2.0955,4.65667 4.65667,4.65667l4.65667,0zm4.65667,18.62668c0,2.56117 2.0955,4.65667 4.65667,4.65667l4.65667,0c2.56117,0 4.65667,-2.0955 4.65667,-4.65667l0,-4.65667c0,-2.56117 -2.0955,-4.65667 -4.65667,-4.65667l-4.65667,0c-2.56117,0 -4.65667,2.0955 -4.65667,4.65667l0,4.65667zm62.86504,32.59669l0,-4.65667c0,-1.28058 -1.04775,-2.32833 -2.32833,-2.32833l-51.22337,0c-1.28058,0 -2.32833,1.04775 -2.32833,2.32833l0,4.65667c0,1.28058 1.04775,2.32833 2.32833,2.32833l51.22337,0c1.28058,0 2.32833,-1.04775 2.32833,-2.32833zm6.985,-32.59669l0,-4.65667c0,-2.56117 -2.0955,-4.65667 -4.65667,-4.65667l-4.65667,0c-2.56117,0 -4.65667,2.0955 -4.65667,4.65667l0,4.65667c0,2.56117 2.0955,4.65667 4.65667,4.65667l4.65667,0c2.56117,0 4.65667,-2.0955 4.65667,-4.65667zm13.97001,-23.28335l0,-4.65667c0,-2.56117 -2.0955,-4.65667 -4.65667,-4.65667l-4.65667,0c-2.56117,0 -4.65667,2.0955 -4.65667,4.65667l0,4.65667c0,2.56117 2.0955,4.65667 4.65667,4.65667l4.65667,0c2.56117,0 4.65667,-2.0955 4.65667,-4.65667z"
    />
  </g>
</svg>